<mxfile host="app.diagrams.net" modified="2022-11-30T08:55:31.293Z" agent="5.0 (Macintosh; Intel Mac OS X 10_15_7) AppleWebKit/605.1.15 (KHTML, like Gecko) Version/16.1 Safari/605.1.15" etag="F9NtZ09SOUiaLdvsCHz6" version="20.6.0" type="github">
  <diagram id="ngRX98vduHMToH2vqNZ9" name="Page-1">
    <mxGraphModel dx="1203" dy="1973" grid="1" gridSize="10" guides="1" tooltips="1" connect="1" arrows="1" fold="1" page="1" pageScale="1" pageWidth="827" pageHeight="1169" math="0" shadow="0">
      <root>
        <mxCell id="0" />
        <mxCell id="1" parent="0" />
        <mxCell id="MDyFbfZrd9gZJdXG5sAw-3" value="SPOTTED_Network" style="rounded=1;whiteSpace=wrap;html=1;" parent="1" vertex="1">
          <mxGeometry x="130" y="230" width="550" height="20" as="geometry" />
        </mxCell>
        <mxCell id="MDyFbfZrd9gZJdXG5sAw-14" value="" style="edgeStyle=orthogonalEdgeStyle;rounded=0;orthogonalLoop=1;jettySize=auto;html=1;endArrow=none;endFill=0;entryX=0.058;entryY=-0.15;entryDx=0;entryDy=0;entryPerimeter=0;" parent="1" source="MDyFbfZrd9gZJdXG5sAw-7" target="MDyFbfZrd9gZJdXG5sAw-3" edge="1">
          <mxGeometry relative="1" as="geometry" />
        </mxCell>
        <mxCell id="MDyFbfZrd9gZJdXG5sAw-9" value="INTERNET" style="shape=mxgraph.cisco.storage.cloud;sketch=0;html=1;pointerEvents=1;dashed=0;fillColor=#036897;strokeColor=#ffffff;strokeWidth=2;verticalLabelPosition=bottom;verticalAlign=top;align=center;outlineConnect=0;" parent="1" vertex="1">
          <mxGeometry x="515" y="564" width="186" height="106" as="geometry" />
        </mxCell>
        <mxCell id="MDyFbfZrd9gZJdXG5sAw-22" style="edgeStyle=orthogonalEdgeStyle;rounded=0;orthogonalLoop=1;jettySize=auto;html=1;entryX=0.325;entryY=-0.15;entryDx=0;entryDy=0;entryPerimeter=0;endArrow=none;endFill=0;" parent="1" source="MDyFbfZrd9gZJdXG5sAw-16" target="MDyFbfZrd9gZJdXG5sAw-3" edge="1">
          <mxGeometry relative="1" as="geometry" />
        </mxCell>
        <mxCell id="MDyFbfZrd9gZJdXG5sAw-29" style="edgeStyle=orthogonalEdgeStyle;rounded=0;orthogonalLoop=1;jettySize=auto;html=1;entryX=0.624;entryY=-0.05;entryDx=0;entryDy=0;entryPerimeter=0;endArrow=none;endFill=0;" parent="1" source="MDyFbfZrd9gZJdXG5sAw-24" target="MDyFbfZrd9gZJdXG5sAw-3" edge="1">
          <mxGeometry relative="1" as="geometry" />
        </mxCell>
        <mxCell id="MDyFbfZrd9gZJdXG5sAw-30" value="" style="group" parent="1" vertex="1" connectable="0">
          <mxGeometry x="10" y="-30" width="186" height="170" as="geometry" />
        </mxCell>
        <mxCell id="MDyFbfZrd9gZJdXG5sAw-7" value="" style="sketch=0;aspect=fixed;html=1;points=[];align=center;image;fontSize=12;image=img/lib/mscae/Virtual_Machine_2.svg;" parent="MDyFbfZrd9gZJdXG5sAw-30" vertex="1">
          <mxGeometry x="120" y="110" width="65.22" height="60" as="geometry" />
        </mxCell>
        <mxCell id="MDyFbfZrd9gZJdXG5sAw-13" style="edgeStyle=orthogonalEdgeStyle;rounded=0;orthogonalLoop=1;jettySize=auto;html=1;endArrow=none;endFill=0;" parent="MDyFbfZrd9gZJdXG5sAw-30" source="MDyFbfZrd9gZJdXG5sAw-10" target="MDyFbfZrd9gZJdXG5sAw-7" edge="1">
          <mxGeometry relative="1" as="geometry" />
        </mxCell>
        <mxCell id="MDyFbfZrd9gZJdXG5sAw-10" value="" style="shape=mxgraph.cisco.storage.relational_database;sketch=0;html=1;pointerEvents=1;dashed=0;fillColor=#036897;strokeColor=#ffffff;strokeWidth=2;verticalLabelPosition=bottom;verticalAlign=top;align=center;outlineConnect=0;" parent="MDyFbfZrd9gZJdXG5sAw-30" vertex="1">
          <mxGeometry x="120" width="66" height="53" as="geometry" />
        </mxCell>
        <mxCell id="MDyFbfZrd9gZJdXG5sAw-11" value="SpottedPortal_Vol&lt;span style=&quot;white-space: pre;&quot;&gt;&lt;br&gt;&lt;/span&gt;" style="text;html=1;align=center;verticalAlign=middle;resizable=0;points=[];autosize=1;strokeColor=none;fillColor=none;" parent="MDyFbfZrd9gZJdXG5sAw-30" vertex="1">
          <mxGeometry y="11.5" width="120" height="30" as="geometry" />
        </mxCell>
        <mxCell id="MDyFbfZrd9gZJdXG5sAw-12" value="SPOTTEDPortal" style="text;html=1;align=center;verticalAlign=middle;resizable=0;points=[];autosize=1;strokeColor=none;fillColor=none;" parent="MDyFbfZrd9gZJdXG5sAw-30" vertex="1">
          <mxGeometry x="5" y="120" width="110" height="30" as="geometry" />
        </mxCell>
        <mxCell id="MDyFbfZrd9gZJdXG5sAw-31" value="" style="group" parent="1" vertex="1" connectable="0">
          <mxGeometry x="277" y="-30" width="115" height="185" as="geometry" />
        </mxCell>
        <mxCell id="MDyFbfZrd9gZJdXG5sAw-16" value="" style="sketch=0;aspect=fixed;html=1;points=[];align=center;image;fontSize=12;image=img/lib/mscae/Virtual_Machine_2.svg;" parent="MDyFbfZrd9gZJdXG5sAw-31" vertex="1">
          <mxGeometry y="110" width="65.22" height="60" as="geometry" />
        </mxCell>
        <mxCell id="MDyFbfZrd9gZJdXG5sAw-18" style="edgeStyle=orthogonalEdgeStyle;rounded=0;orthogonalLoop=1;jettySize=auto;html=1;endArrow=none;endFill=0;" parent="MDyFbfZrd9gZJdXG5sAw-31" source="MDyFbfZrd9gZJdXG5sAw-17" target="MDyFbfZrd9gZJdXG5sAw-16" edge="1">
          <mxGeometry relative="1" as="geometry" />
        </mxCell>
        <mxCell id="MDyFbfZrd9gZJdXG5sAw-17" value="" style="shape=mxgraph.cisco.storage.relational_database;sketch=0;html=1;pointerEvents=1;dashed=0;fillColor=#036897;strokeColor=#ffffff;strokeWidth=2;verticalLabelPosition=bottom;verticalAlign=top;align=center;outlineConnect=0;" parent="MDyFbfZrd9gZJdXG5sAw-31" vertex="1">
          <mxGeometry width="66" height="53" as="geometry" />
        </mxCell>
        <mxCell id="MDyFbfZrd9gZJdXG5sAw-20" value="Idra_Vol&lt;span style=&quot;white-space: pre;&quot;&gt;&lt;br&gt;&lt;/span&gt;" style="text;html=1;align=center;verticalAlign=middle;resizable=0;points=[];autosize=1;strokeColor=none;fillColor=none;" parent="MDyFbfZrd9gZJdXG5sAw-31" vertex="1">
          <mxGeometry x="45" y="53" width="70" height="30" as="geometry" />
        </mxCell>
        <mxCell id="MDyFbfZrd9gZJdXG5sAw-21" value="Idra" style="text;html=1;align=center;verticalAlign=middle;resizable=0;points=[];autosize=1;strokeColor=none;fillColor=none;" parent="MDyFbfZrd9gZJdXG5sAw-31" vertex="1">
          <mxGeometry x="54" y="155" width="40" height="30" as="geometry" />
        </mxCell>
        <mxCell id="MDyFbfZrd9gZJdXG5sAw-32" value="" style="group" parent="1" vertex="1" connectable="0">
          <mxGeometry x="440" y="-30" width="121" height="185" as="geometry" />
        </mxCell>
        <mxCell id="MDyFbfZrd9gZJdXG5sAw-24" value="" style="sketch=0;aspect=fixed;html=1;points=[];align=center;image;fontSize=12;image=img/lib/mscae/Virtual_Machine_2.svg;" parent="MDyFbfZrd9gZJdXG5sAw-32" vertex="1">
          <mxGeometry y="110" width="65.22" height="60" as="geometry" />
        </mxCell>
        <mxCell id="MDyFbfZrd9gZJdXG5sAw-28" style="edgeStyle=orthogonalEdgeStyle;rounded=0;orthogonalLoop=1;jettySize=auto;html=1;endArrow=none;endFill=0;" parent="MDyFbfZrd9gZJdXG5sAw-32" source="MDyFbfZrd9gZJdXG5sAw-25" target="MDyFbfZrd9gZJdXG5sAw-24" edge="1">
          <mxGeometry relative="1" as="geometry" />
        </mxCell>
        <mxCell id="MDyFbfZrd9gZJdXG5sAw-25" value="" style="shape=mxgraph.cisco.storage.relational_database;sketch=0;html=1;pointerEvents=1;dashed=0;fillColor=#036897;strokeColor=#ffffff;strokeWidth=2;verticalLabelPosition=bottom;verticalAlign=top;align=center;outlineConnect=0;" parent="MDyFbfZrd9gZJdXG5sAw-32" vertex="1">
          <mxGeometry width="66" height="53" as="geometry" />
        </mxCell>
        <mxCell id="MDyFbfZrd9gZJdXG5sAw-26" value="&lt;span style=&quot;white-space: pre;&quot;&gt;CB_Vol&lt;br&gt;&lt;/span&gt;" style="text;html=1;align=center;verticalAlign=middle;resizable=0;points=[];autosize=1;strokeColor=none;fillColor=none;" parent="MDyFbfZrd9gZJdXG5sAw-32" vertex="1">
          <mxGeometry x="61" y="53" width="60" height="30" as="geometry" />
        </mxCell>
        <mxCell id="MDyFbfZrd9gZJdXG5sAw-27" value="CB" style="text;html=1;align=center;verticalAlign=middle;resizable=0;points=[];autosize=1;strokeColor=none;fillColor=none;" parent="MDyFbfZrd9gZJdXG5sAw-32" vertex="1">
          <mxGeometry x="65" y="155" width="40" height="30" as="geometry" />
        </mxCell>
        <mxCell id="l267T5qXetFLVSgFZMDz-8" style="edgeStyle=orthogonalEdgeStyle;rounded=0;orthogonalLoop=1;jettySize=auto;html=1;entryX=0.058;entryY=1;entryDx=0;entryDy=0;entryPerimeter=0;endArrow=none;endFill=0;" edge="1" parent="1" source="l267T5qXetFLVSgFZMDz-7" target="MDyFbfZrd9gZJdXG5sAw-3">
          <mxGeometry relative="1" as="geometry" />
        </mxCell>
        <mxCell id="l267T5qXetFLVSgFZMDz-24" value="" style="group" vertex="1" connectable="0" parent="1">
          <mxGeometry x="600" y="-30" width="126" height="185" as="geometry" />
        </mxCell>
        <mxCell id="l267T5qXetFLVSgFZMDz-25" value="" style="sketch=0;aspect=fixed;html=1;points=[];align=center;image;fontSize=12;image=img/lib/mscae/Virtual_Machine_2.svg;" vertex="1" parent="l267T5qXetFLVSgFZMDz-24">
          <mxGeometry y="110" width="65.22" height="60" as="geometry" />
        </mxCell>
        <mxCell id="l267T5qXetFLVSgFZMDz-26" style="edgeStyle=orthogonalEdgeStyle;rounded=0;orthogonalLoop=1;jettySize=auto;html=1;endArrow=none;endFill=0;" edge="1" parent="l267T5qXetFLVSgFZMDz-24" source="l267T5qXetFLVSgFZMDz-27" target="l267T5qXetFLVSgFZMDz-25">
          <mxGeometry relative="1" as="geometry" />
        </mxCell>
        <mxCell id="l267T5qXetFLVSgFZMDz-27" value="" style="shape=mxgraph.cisco.storage.relational_database;sketch=0;html=1;pointerEvents=1;dashed=0;fillColor=#036897;strokeColor=#ffffff;strokeWidth=2;verticalLabelPosition=bottom;verticalAlign=top;align=center;outlineConnect=0;" vertex="1" parent="l267T5qXetFLVSgFZMDz-24">
          <mxGeometry width="66" height="53" as="geometry" />
        </mxCell>
        <mxCell id="l267T5qXetFLVSgFZMDz-28" value="&lt;span style=&quot;white-space: pre;&quot;&gt;DMP_Vol&lt;br&gt;&lt;/span&gt;" style="text;html=1;align=center;verticalAlign=middle;resizable=0;points=[];autosize=1;strokeColor=none;fillColor=none;" vertex="1" parent="l267T5qXetFLVSgFZMDz-24">
          <mxGeometry x="56" y="53" width="70" height="30" as="geometry" />
        </mxCell>
        <mxCell id="l267T5qXetFLVSgFZMDz-29" value="DMP" style="text;html=1;align=center;verticalAlign=middle;resizable=0;points=[];autosize=1;strokeColor=none;fillColor=none;" vertex="1" parent="l267T5qXetFLVSgFZMDz-24">
          <mxGeometry x="60" y="155" width="50" height="30" as="geometry" />
        </mxCell>
        <mxCell id="l267T5qXetFLVSgFZMDz-30" style="edgeStyle=none;rounded=0;orthogonalLoop=1;jettySize=auto;html=1;entryX=0.913;entryY=0;entryDx=0;entryDy=0;entryPerimeter=0;endArrow=none;endFill=0;" edge="1" parent="1" source="l267T5qXetFLVSgFZMDz-25" target="MDyFbfZrd9gZJdXG5sAw-3">
          <mxGeometry relative="1" as="geometry" />
        </mxCell>
        <mxCell id="l267T5qXetFLVSgFZMDz-31" value="" style="group" vertex="1" connectable="0" parent="1">
          <mxGeometry x="6" y="330" width="354" height="197" as="geometry" />
        </mxCell>
        <mxCell id="l267T5qXetFLVSgFZMDz-7" value="" style="sketch=0;aspect=fixed;html=1;points=[];align=center;image;fontSize=12;image=img/lib/mscae/Virtual_Machine_2.svg;" vertex="1" parent="l267T5qXetFLVSgFZMDz-31">
          <mxGeometry x="124" width="65.22" height="60" as="geometry" />
        </mxCell>
        <mxCell id="l267T5qXetFLVSgFZMDz-13" value="" style="group" vertex="1" connectable="0" parent="l267T5qXetFLVSgFZMDz-31">
          <mxGeometry y="114" width="316" height="53" as="geometry" />
        </mxCell>
        <mxCell id="l267T5qXetFLVSgFZMDz-9" value="" style="shape=mxgraph.cisco.storage.relational_database;sketch=0;html=1;pointerEvents=1;dashed=0;fillColor=#036897;strokeColor=#ffffff;strokeWidth=2;verticalLabelPosition=bottom;verticalAlign=top;align=center;outlineConnect=0;" vertex="1" parent="l267T5qXetFLVSgFZMDz-13">
          <mxGeometry width="66" height="53" as="geometry" />
        </mxCell>
        <mxCell id="l267T5qXetFLVSgFZMDz-10" value="" style="shape=mxgraph.cisco.storage.relational_database;sketch=0;html=1;pointerEvents=1;dashed=0;fillColor=#036897;strokeColor=#ffffff;strokeWidth=2;verticalLabelPosition=bottom;verticalAlign=top;align=center;outlineConnect=0;" vertex="1" parent="l267T5qXetFLVSgFZMDz-13">
          <mxGeometry x="80" width="66" height="53" as="geometry" />
        </mxCell>
        <mxCell id="l267T5qXetFLVSgFZMDz-11" value="" style="shape=mxgraph.cisco.storage.relational_database;sketch=0;html=1;pointerEvents=1;dashed=0;fillColor=#036897;strokeColor=#ffffff;strokeWidth=2;verticalLabelPosition=bottom;verticalAlign=top;align=center;outlineConnect=0;" vertex="1" parent="l267T5qXetFLVSgFZMDz-13">
          <mxGeometry x="165" width="66" height="53" as="geometry" />
        </mxCell>
        <mxCell id="l267T5qXetFLVSgFZMDz-12" value="" style="shape=mxgraph.cisco.storage.relational_database;sketch=0;html=1;pointerEvents=1;dashed=0;fillColor=#036897;strokeColor=#ffffff;strokeWidth=2;verticalLabelPosition=bottom;verticalAlign=top;align=center;outlineConnect=0;" vertex="1" parent="l267T5qXetFLVSgFZMDz-13">
          <mxGeometry x="250" width="66" height="53" as="geometry" />
        </mxCell>
        <mxCell id="l267T5qXetFLVSgFZMDz-14" value="ObjectStorage" style="text;html=1;align=center;verticalAlign=middle;resizable=0;points=[];autosize=1;strokeColor=none;fillColor=none;" vertex="1" parent="l267T5qXetFLVSgFZMDz-31">
          <mxGeometry x="4" width="100" height="30" as="geometry" />
        </mxCell>
        <mxCell id="l267T5qXetFLVSgFZMDz-16" style="rounded=0;orthogonalLoop=1;jettySize=auto;html=1;entryX=-0.015;entryY=0.383;entryDx=0;entryDy=0;entryPerimeter=0;endArrow=none;endFill=0;" edge="1" parent="l267T5qXetFLVSgFZMDz-31" source="l267T5qXetFLVSgFZMDz-9" target="l267T5qXetFLVSgFZMDz-7">
          <mxGeometry relative="1" as="geometry" />
        </mxCell>
        <mxCell id="l267T5qXetFLVSgFZMDz-17" style="edgeStyle=none;rounded=0;orthogonalLoop=1;jettySize=auto;html=1;endArrow=none;endFill=0;" edge="1" parent="l267T5qXetFLVSgFZMDz-31" source="l267T5qXetFLVSgFZMDz-10" target="l267T5qXetFLVSgFZMDz-7">
          <mxGeometry relative="1" as="geometry" />
        </mxCell>
        <mxCell id="l267T5qXetFLVSgFZMDz-18" style="edgeStyle=none;rounded=0;orthogonalLoop=1;jettySize=auto;html=1;endArrow=none;endFill=0;" edge="1" parent="l267T5qXetFLVSgFZMDz-31" source="l267T5qXetFLVSgFZMDz-11" target="l267T5qXetFLVSgFZMDz-7">
          <mxGeometry relative="1" as="geometry" />
        </mxCell>
        <mxCell id="l267T5qXetFLVSgFZMDz-19" style="edgeStyle=none;rounded=0;orthogonalLoop=1;jettySize=auto;html=1;entryX=1.012;entryY=0.35;entryDx=0;entryDy=0;entryPerimeter=0;endArrow=none;endFill=0;" edge="1" parent="l267T5qXetFLVSgFZMDz-31" source="l267T5qXetFLVSgFZMDz-12" target="l267T5qXetFLVSgFZMDz-7">
          <mxGeometry relative="1" as="geometry" />
        </mxCell>
        <mxCell id="l267T5qXetFLVSgFZMDz-20" value="OS_Vol1" style="text;html=1;align=center;verticalAlign=middle;resizable=0;points=[];autosize=1;strokeColor=none;fillColor=none;" vertex="1" parent="l267T5qXetFLVSgFZMDz-31">
          <mxGeometry y="167" width="70" height="30" as="geometry" />
        </mxCell>
        <mxCell id="l267T5qXetFLVSgFZMDz-21" value="OS_Vol2" style="text;html=1;align=center;verticalAlign=middle;resizable=0;points=[];autosize=1;strokeColor=none;fillColor=none;" vertex="1" parent="l267T5qXetFLVSgFZMDz-31">
          <mxGeometry x="78" y="167" width="70" height="30" as="geometry" />
        </mxCell>
        <mxCell id="l267T5qXetFLVSgFZMDz-22" value="OS_Vol3" style="text;html=1;align=center;verticalAlign=middle;resizable=0;points=[];autosize=1;strokeColor=none;fillColor=none;" vertex="1" parent="l267T5qXetFLVSgFZMDz-31">
          <mxGeometry x="164" y="167" width="70" height="30" as="geometry" />
        </mxCell>
        <mxCell id="l267T5qXetFLVSgFZMDz-23" value="OS_Vol4" style="text;html=1;align=center;verticalAlign=middle;resizable=0;points=[];autosize=1;strokeColor=none;fillColor=none;" vertex="1" parent="l267T5qXetFLVSgFZMDz-31">
          <mxGeometry x="251" y="167" width="70" height="30" as="geometry" />
        </mxCell>
        <mxCell id="l267T5qXetFLVSgFZMDz-52" style="edgeStyle=none;rounded=0;orthogonalLoop=1;jettySize=auto;html=1;entryX=0.5;entryY=1;entryDx=0;entryDy=0;endArrow=none;endFill=0;" edge="1" parent="1" source="l267T5qXetFLVSgFZMDz-33" target="MDyFbfZrd9gZJdXG5sAw-3">
          <mxGeometry relative="1" as="geometry" />
        </mxCell>
        <mxCell id="l267T5qXetFLVSgFZMDz-33" value="" style="sketch=0;aspect=fixed;html=1;points=[];align=center;image;fontSize=12;image=img/lib/mscae/Virtual_Machine_2.svg;" vertex="1" parent="1">
          <mxGeometry x="372" y="330" width="65.22" height="60" as="geometry" />
        </mxCell>
        <mxCell id="l267T5qXetFLVSgFZMDz-44" value="Processing_Vol1" style="text;html=1;align=center;verticalAlign=middle;resizable=0;points=[];autosize=1;strokeColor=none;fillColor=none;" vertex="1" parent="1">
          <mxGeometry x="350" y="497" width="110" height="30" as="geometry" />
        </mxCell>
        <mxCell id="l267T5qXetFLVSgFZMDz-51" style="edgeStyle=none;rounded=0;orthogonalLoop=1;jettySize=auto;html=1;endArrow=none;endFill=0;" edge="1" parent="1" source="l267T5qXetFLVSgFZMDz-35" target="l267T5qXetFLVSgFZMDz-33">
          <mxGeometry relative="1" as="geometry" />
        </mxCell>
        <mxCell id="l267T5qXetFLVSgFZMDz-35" value="" style="shape=mxgraph.cisco.storage.relational_database;sketch=0;html=1;pointerEvents=1;dashed=0;fillColor=#036897;strokeColor=#ffffff;strokeWidth=2;verticalLabelPosition=bottom;verticalAlign=top;align=center;outlineConnect=0;" vertex="1" parent="1">
          <mxGeometry x="372" y="444" width="66" height="53" as="geometry" />
        </mxCell>
        <mxCell id="l267T5qXetFLVSgFZMDz-39" value="Processing" style="text;html=1;align=center;verticalAlign=middle;resizable=0;points=[];autosize=1;strokeColor=none;fillColor=none;" vertex="1" parent="1">
          <mxGeometry x="288" y="330" width="80" height="30" as="geometry" />
        </mxCell>
        <mxCell id="l267T5qXetFLVSgFZMDz-54" value="" style="group" vertex="1" connectable="0" parent="1">
          <mxGeometry x="569" y="380" width="197" height="53" as="geometry" />
        </mxCell>
        <mxCell id="MDyFbfZrd9gZJdXG5sAw-6" value="" style="shape=mxgraph.cisco.routers.router;sketch=0;html=1;pointerEvents=1;dashed=0;fillColor=#036897;strokeColor=#ffffff;strokeWidth=2;verticalLabelPosition=bottom;verticalAlign=top;align=center;outlineConnect=0;" parent="l267T5qXetFLVSgFZMDz-54" vertex="1">
          <mxGeometry width="78" height="53" as="geometry" />
        </mxCell>
        <mxCell id="l267T5qXetFLVSgFZMDz-53" value="SPOTTED_Router" style="text;html=1;align=center;verticalAlign=middle;resizable=0;points=[];autosize=1;strokeColor=none;fillColor=none;" vertex="1" parent="l267T5qXetFLVSgFZMDz-54">
          <mxGeometry x="77" y="11.5" width="120" height="30" as="geometry" />
        </mxCell>
        <mxCell id="l267T5qXetFLVSgFZMDz-55" style="edgeStyle=none;rounded=0;orthogonalLoop=1;jettySize=auto;html=1;entryX=0.869;entryY=1;entryDx=0;entryDy=0;entryPerimeter=0;endArrow=none;endFill=0;" edge="1" parent="1" source="MDyFbfZrd9gZJdXG5sAw-6" target="MDyFbfZrd9gZJdXG5sAw-3">
          <mxGeometry relative="1" as="geometry" />
        </mxCell>
        <mxCell id="l267T5qXetFLVSgFZMDz-56" style="edgeStyle=none;rounded=0;orthogonalLoop=1;jettySize=auto;html=1;endArrow=none;endFill=0;" edge="1" parent="1" source="MDyFbfZrd9gZJdXG5sAw-6" target="MDyFbfZrd9gZJdXG5sAw-9">
          <mxGeometry relative="1" as="geometry" />
        </mxCell>
      </root>
    </mxGraphModel>
  </diagram>
</mxfile>
